HIERARCHY
ROOT root
{
	OFFSET	0	13.1	24.9
	CHANNELS 6  Xposition Yposition Zposition Xrotation Yrotation Zrotation
	JOINT spine_1
	{
		OFFSET	0	9.99999	0
		CHANNELS 3  Xrotation Yrotation Zrotation
		JOINT spine_2
		{
			OFFSET	0	112	-10
			CHANNELS 3  Xrotation Yrotation Zrotation
			JOINT spine_3
			{
				OFFSET	0	206.5	19.3
				CHANNELS 3  Xrotation Yrotation Zrotation
				JOINT spine_4
				{
					OFFSET	0	110.4	14.6
					CHANNELS 3  Xrotation Yrotation Zrotation
					JOINT neck_1
					{
						OFFSET	0	71.8	-50.3
						CHANNELS 3  Xrotation Yrotation Zrotation
						JOINT neck_2
						{
							OFFSET	0	86.2	-25.8
							CHANNELS 3  Xrotation Yrotation Zrotation
							JOINT head_ee
							{
								OFFSET	0	179.8	-8.7
								CHANNELS 3  Xrotation Yrotation Zrotation
								End Site
								{
									OFFSET	1	0	0
								}
							}
						}
					}
					JOINT left_clavicle
					{
						OFFSET	-43.2	22.4	-70.8
						CHANNELS 3  Xrotation Yrotation Zrotation
						JOINT left_shoulder
						{
							OFFSET	-93.9	-5.79999	48.7
							CHANNELS 3  Xrotation Yrotation Zrotation
							JOINT left_elbow
							{
								OFFSET	-291.4	-30.8	15.2
								CHANNELS 3  Xrotation Yrotation Zrotation
								JOINT left_lowarm_twist
								{
									OFFSET	-110.7	-3.89999	13.6
									CHANNELS 3  Xrotation Yrotation Zrotation
									JOINT left_hand
									{
										OFFSET	-110.7	-3.89999	13.6
										CHANNELS 3  Xrotation Yrotation Zrotation
										JOINT left_ee
										{
											OFFSET	-80.8	-5.10001	12.1
											CHANNELS 3  Xrotation Yrotation Zrotation
											End Site
											{
												OFFSET	1	0	0
											}
										}
									}
								}
							}
						}
					}
					JOINT right_clavicle
					{
						OFFSET	43.2	22.4	-70.8
						CHANNELS 3  Xrotation Yrotation Zrotation
						JOINT right_shoulder
						{
							OFFSET	93.9	-5.79999	48.7
							CHANNELS 3  Xrotation Yrotation Zrotation
							JOINT right_elbow
							{
								OFFSET	291.4	-30.8	15.2
								CHANNELS 3  Xrotation Yrotation Zrotation
								JOINT right_lowarm_twist
								{
									OFFSET	110.7	-3.89999	13.6
									CHANNELS 3  Xrotation Yrotation Zrotation
									JOINT right_hand
									{
										OFFSET	110.7	-3.89999	13.6
										CHANNELS 3  Xrotation Yrotation Zrotation
										JOINT right_ee
										{
											OFFSET	80.8	-5.10001	12.1
											CHANNELS 3  Xrotation Yrotation Zrotation
											End Site
											{
												OFFSET	1	0	0
											}
										}
									}
								}
							}
						}
					}
				}
			}
		}
	}
	JOINT left_hip
	{
		OFFSET	-82.8	-127.5	0.300001
		CHANNELS 3  Xrotation Yrotation Zrotation
		JOINT left_knee
		{
			OFFSET	-28.2	-396.7	2.2
			CHANNELS 3  Xrotation Yrotation Zrotation
			JOINT left_ankle
			{
				OFFSET	-11.7	-411.3	35.4
				CHANNELS 3  Xrotation Yrotation Zrotation
				JOINT left_toes
				{
					OFFSET	0	-60	-88.6
					CHANNELS 3  Xrotation Yrotation Zrotation
					JOINT left_foot_ee
					{
						OFFSET	-22.5	-16.5	-42.2
						CHANNELS 3  Xrotation Yrotation Zrotation
						End Site
						{
							OFFSET	1	0	0
						}
					}
				}
			}
		}
	}
	JOINT right_hip
	{
		OFFSET	82.8	-127.5	0.300001
		CHANNELS 3  Xrotation Yrotation Zrotation
		JOINT right_knee
		{
			OFFSET	28.2	-396.7	2.2
			CHANNELS 3  Xrotation Yrotation Zrotation
			JOINT right_ankle
			{
				OFFSET	11.7	-411.3	35.4
				CHANNELS 3  Xrotation Yrotation Zrotation
				JOINT right_toes
				{
					OFFSET	0	-60	-88.6
					CHANNELS 3  Xrotation Yrotation Zrotation
					JOINT right_foot_ee
					{
						OFFSET	22.5	-16.5	-42.2
						CHANNELS 3  Xrotation Yrotation Zrotation
						End Site
						{
							OFFSET	1	0	0
						}
					}
				}
			}
		}
	}
}
MOTION
Frames: 15
Frame Time: 0.02
2280.05 726.899 -1447.04 1.44028 51.6761 -2.40426 2.48137 0.526747 0.927686 2.48173 0.466652 0.959321 2.48956 0.299418 1.02391 2.48839 0.457361 0.963784 -15.2516 17.4059 -2.13672 -16.4996 34.5443 4.38512 -0.0 0.0 -0.0 -2.8777 17.8738 -2.30823 -26.9517 -4.88974 75.6682 0.261033 -7.36811 0.0168073 4.33966 0.132559 -0.53833 3.87146 -22.9728 15.7514 -0.0 0.0 -0.0 10.2611 28.7444 -19.1323 -10.4478 40.7562 -60.9565 1.28463 32.47 -0.374086 8.28 -0.217302 1.03444 4.97126 -30.9255 -42.7546 0.0 0.0 0.0 3.04706 22.4893 -0.970722 -46.7471 -0.95081 6.91566 -20.2885 -29.0659 3.85899 31.1819 -0.0 -0.0 -0.0 0.0 -0.0 12.0765 24.8158 -9.34384 -24.2755 -0.220437 -3.69097 21.0149 0.910359 2.88326 12.3742 -0.0 -0.0 0.0 0.0 0.0 
2263.63 728.17 -1441.8 1.33773 51.988 -2.10034 2.40898 0.522572 0.906076 2.40932 0.46386 0.937489 2.41694 0.29905 1.0023 2.41583 0.453585 0.942502 -16.3874 17.4224 -2.29777 -17.8292 34.6942 4.66135 -0.0 0.0 -0.0 -2.94304 20.8238 -1.83443 -27.8681 -8.01328 74.7858 0.251239 -7.09452 0.0155745 3.30315 0.104614 -0.408878 3.69944 -19.6989 16.3334 -0.0 0.0 -0.0 9.41866 28.1405 -17.3287 -9.05915 40.4968 -61.815 1.52024 36.9802 -0.508399 8.85868 -0.226866 1.10774 4.57766 -29.4908 -39.7248 0.0 0.0 0.0 9.84832 21.4774 -3.78093 -48.286 -1.0762 7.11665 -21.4592 -28.0137 4.02526 30.3704 -0.0 -0.0 -0.0 0.0 -0.0 11.8953 28.9045 -9.65894 -24.3134 -0.219555 -3.69672 18.8043 -1.64188 2.59365 11.9553 -0.0 -0.0 0.0 0.0 0.0 
2253.09 732.923 -1439.4 1.34844 51.661 -2.22985 2.50774 0.620061 0.911066 2.50803 0.560833 0.948673 2.51736 0.394568 1.02899 2.51631 0.552119 0.95377 -17.3467 17.2013 -1.62968 -18.8664 33.9194 5.5094 -0.0 0.0 -0.0 -2.61017 22.2088 -1.09332 -28.4812 -7.56517 73.845 0.218674 -6.1826 0.0118097 3.39339 0.10714 -0.420128 3.35969 -16.9287 15.4107 -0.0 0.0 -0.0 8.97141 28.6216 -16.2812 -7.84839 40.8242 -61.4102 1.73574 40.6866 -0.643604 9.37522 -0.234777 1.17325 4.13353 -27.3425 -36.3034 0.0 0.0 0.0 19.2516 22.2243 -9.39146 -46.4641 -0.92835 6.87835 -20.9131 -28.1837 3.93154 30.6924 -0.0 -0.0 -0.0 0.0 -0.0 8.37059 27.3269 -7.04916 -22.2041 -0.262946 -3.37597 19.1151 -1.21799 2.63469 11.0176 -0.0 -0.0 0.0 0.0 0.0 
2239.14 733.871 -1438.38 -1.18936 52.6513 0.335646 2.66597 0.590352 0.856758 2.66622 0.53464 0.892585 2.67457 0.380759 0.968277 2.67365 0.528895 0.896 -17.9241 17.0677 -1.69101 -19.5082 33.7036 5.59287 -0.0 0.0 -0.0 -2.48257 23.4694 -0.683147 -29.0207 -8.35932 72.6889 0.220491 -6.23357 0.0120061 3.23701 0.102751 -0.400634 3.22404 -14.943 15.4476 -0.0 0.0 -0.0 8.52344 28.4724 -15.3089 -6.47399 40.6812 -61.7438 1.88586 43.0472 -0.743814 9.71321 -0.239634 1.21615 3.92142 -25.8043 -34.5942 0.0 0.0 0.0 22.925 22.3112 -11.1643 -46.6477 -0.942903 6.90257 -20.7953 -27.8238 3.8911 30.1563 -0.0 -0.0 -0.0 0.0 -0.0 9.07033 28.2446 -7.69362 -19.869 -0.297175 -3.01931 18.2807 -2.59031 2.52372 11.0414 -0.0 -0.0 0.0 0.0 0.0 
2221.28 733.587 -1439.4 -1.36227 53.9805 0.713575 2.74106 0.36748 0.882526 2.74144 0.31058 0.904118 2.74629 0.158996 0.942658 2.74519 0.30587 0.905722 -17.6452 16.9913 -1.126 -19.1418 33.251 5.96668 -0.0 0.0 -0.0 -2.26305 24.3007 -0.235523 -30.5805 -8.59066 71.4357 0.225531 -6.37488 0.0125596 1.52084 0.0510972 -0.187516 2.87503 -8.74949 15.8925 -0.0 0.0 -0.0 8.22642 27.2231 -14.7941 -3.89157 38.8401 -62.8566 2.11435 46.3201 -0.904552 10.4257 -0.249042 1.30668 2.78134 -21.1803 -25.8525 0.0 0.0 0.0 24.9162 19.0903 -12.8369 -47.3402 -0.998495 6.99352 -16.6655 -28.0197 3.12201 31.1949 -0.0 -0.0 -0.0 0.0 -0.0 9.2622 32.4873 -8.56786 -20.8886 -0.284017 -3.17521 17.8635 -8.58887 2.46304 10.5987 -0.0 -0.0 0.0 0.0 0.0 
2205.77 732.628 -1444.11 -2.9738 54.2289 3.14473 2.97898 0.294221 0.84386 2.97934 0.239929 0.860871 2.98286 0.100001 0.888066 2.98184 0.238995 0.86113 -17.2768 16.7903 -1.54998 -18.7004 33.0875 5.35553 -0.0 0.0 -0.0 -2.24987 24.0315 -0.265105 -32.0342 -8.16813 71.1464 0.233447 -6.59671 0.0134538 1.91804 0.0636201 -0.236704 2.74127 -7.06157 15.6996 -0.0 0.0 -0.0 8.47842 27.1039 -15.3633 -3.08494 39.6987 -62.0119 2.24267 48.0023 -0.998658 10.9922 -0.255718 1.37872 2.59893 -20.3032 -24.4179 0.0 0.0 0.0 26.3134 16.7736 -14.0077 -45.8852 -0.88298 6.80169 -17.6416 -26.7844 3.25497 31.4556 -0.0 -0.0 -0.0 0.0 -0.0 8.99043 32.0455 -9.49001 -20.4799 -0.289625 -3.11275 17.2578 -10.3593 2.38843 10.1684 -0.0 -0.0 0.0 0.0 0.0 
2187.26 730.947 -1446.42 -3.7806 55.6552 4.34618 2.98464 0.300447 0.835016 2.98499 0.246706 0.85244 2.98858 0.108121 0.880809 2.98758 0.245866 0.852682 -16.5808 16.4539 -1.47424 -17.8392 32.3862 5.02766 -0.0 0.0 -0.0 -2.10271 23.3881 -0.176065 -32.8614 -8.17753 71.3431 0.25053 -7.07471 0.0154871 1.01212 0.03456 -0.124644 2.5988 -4.63823 15.7418 -0.0 0.0 -0.0 8.95713 26.8949 -16.4453 -2.28331 37.5589 -61.3877 2.32604 49.0393 -1.06112 11.6027 -0.262116 1.45644 1.75768 -16.831 -17.9084 0.0 0.0 0.0 28.2501 14.0987 -15.6599 -44.7556 -0.796695 6.6508 -16.541 -26.0701 3.02333 32.2603 -0.0 -0.0 -0.0 0.0 -0.0 8.54683 31.2598 -9.6081 -20.6623 -0.287177 -3.14063 19.2437 -10.1137 2.63993 10.2239 -0.0 -0.0 0.0 0.0 0.0 
2174.26 728.581 -1452.06 -5.13213 55.6556 5.99691 3.19425 0.460509 0.886427 3.1946 0.403172 0.913931 3.20094 0.256432 0.965428 3.19987 0.405679 0.912821 -15.1098 16.1646 -1.83146 -16.134 31.9911 4.08333 -0.0 0.0 -0.0 -1.99382 22.8585 -0.115578 -33.6275 -8.09151 70.7671 0.254057 -7.17325 0.0159244 -1.20574 -0.044041 0.147676 2.2419 -0.717893 14.8696 -0.0 0.0 -0.0 9.65821 28.5145 -17.8169 -0.636796 36.2634 -62.2529 2.22462 47.772 -0.985263 13.151 -0.274624 1.6538 1.45909 -11.8524 -14.2899 0.0 0.0 0.0 29.7119 11.5283 -17.5267 -39.6823 -0.446682 5.95377 -13.9344 -24.6552 2.49935 32.1674 -0.0 -0.0 -0.0 0.0 -0.0 7.64345 31.8264 -9.8116 -19.361 -0.302694 -2.94156 20.7559 -8.8696 2.82537 10.6724 -0.0 -0.0 0.0 0.0 0.0 
2150.65 723.579 -1452.68 -6.16878 56.9354 7.3724 3.23058 0.480939 0.777419 3.23081 0.430497 0.806445 3.23682 0.30065 0.863299 3.23605 0.433214 0.804989 -14.0839 15.7334 -2.36503 -14.9307 31.447 3.08105 -0.0 0.0 -0.0 -2.51522 22.6406 -0.880172 -34.575 -7.92374 70.9354 0.340606 -9.57729 0.0285336 -0.88168 -0.0318987 0.108076 2.27439 0.288701 15.4972 -0.0 0.0 -0.0 10.3769 28.6987 -19.3965 0.291721 34.0754 -61.5287 2.16826 47.0398 -0.943772 13.2227 -0.275073 1.66295 1.12263 -8.97227 -11.0293 0.0 0.0 0.0 29.2851 10.4671 -16.6577 -28.389 0.102391 4.31109 -11.5809 -20.186 1.97615 31.841 -0.0 -0.0 -0.0 0.0 -0.0 4.77791 30.9361 -8.83357 -16.9274 -0.319564 -2.56858 23.4651 -9.28319 3.15379 10.9199 -0.0 -0.0 0.0 0.0 0.0 
2135.14 723.723 -1453.59 -8.44314 57.4999 10.3974 3.49694 0.449623 0.592061 3.49704 0.411038 0.619471 3.50146 0.313441 0.674129 3.50107 0.415971 0.616169 -11.7101 15.7831 -2.21591 -12.2558 31.3361 2.48639 -0.0 0.0 -0.0 -3.18934 22.2991 -1.89303 -34.085 -7.77101 71.6452 0.403526 -11.3043 0.0399372 -0.691674 -0.0248838 0.0848261 2.49735 0.864205 17.278 -0.0 0.0 -0.0 10.8714 27.7512 -20.6204 0.501309 32.5244 -60.5135 2.1084 46.2395 -0.900251 13.5292 -0.276868 1.70206 0.977367 -3.17314 -7.82043 0.0 0.0 0.0 28.2686 8.60663 -16.4596 -19.572 0.300485 2.97387 -12.273 -19.0606 2.07394 31.2358 -0.0 -0.0 -0.0 0.0 -0.0 4.35755 30.234 -9.29347 -15.1774 -0.321898 -2.30011 23.455 -10.3865 3.15579 10.2211 -0.0 -0.0 0.0 0.0 0.0 
2118.46 718.125 -1453.44 -9.17824 58.7161 11.0344 3.6461 0.42223 0.717839 3.64631 0.375698 0.74325 3.6511 0.261995 0.790522 3.65044 0.383551 0.739228 -11.2471 15.7265 -2.15348 -11.7299 31.1596 2.38289 -0.0 0.0 -0.0 -3.64494 22.0355 -2.59417 -33.8724 -7.64583 71.8375 0.445801 -12.4534 0.0486398 -1.76993 -0.0657153 0.216456 2.35444 3.28826 17.2207 -0.0 0.0 -0.0 11.0973 27.8841 -21.1128 0.504824 31.7068 -59.5315 2.06338 45.6218 -0.867904 14.077 -0.279554 1.77197 0.902816 0.776927 -5.72283 0.0 0.0 0.0 28.4279 8.40103 -17.1071 -8.57911 0.257019 1.29032 -9.80677 -14.6933 1.59248 30.6308 -0.0 -0.0 -0.0 0.0 -0.0 2.54449 29.9624 -8.55097 -13.2723 -0.315116 -2.0079 22.4908 -11.5361 3.04459 10.0952 -0.0 -0.0 0.0 0.0 0.0 
2094.49 711.6 -1453.91 -11.0421 60.5365 13.166 3.7638 0.343892 0.724079 3.76404 0.297122 0.744493 3.76779 0.185675 0.77979 3.76707 0.306495 0.740684 -11.5063 14.5059 -2.72101 -11.9381 29.2275 1.53065 -0.0 0.0 -0.0 -4.17288 22.7076 -3.18999 -33.7299 -7.78632 71.3705 0.541524 -15.0165 0.0713728 -3.45652 -0.134538 0.420766 2.0687 5.52031 16.0905 -0.0 0.0 -0.0 11.5255 27.6929 -22.1031 0.067252 31.2046 -59.2104 2.09998 46.1251 -0.894178 14.496 -0.281157 1.82547 0.748185 2.41344 -4.00657 0.0 0.0 0.0 26.8731 8.33174 -16.3983 0.726888 -0.0306137 -0.107343 -8.06488 -9.31714 1.26055 30.9345 -0.0 -0.0 -0.0 0.0 -0.0 1.26524 28.7442 -8.41978 -11.5509 -0.300637 -1.74419 27.1071 -7.33658 3.57148 11.107 -0.0 -0.0 0.0 0.0 0.0 
2073.92 709.872 -1454.25 -11.5348 61.2673 13.9879 3.83019 0.278913 0.791205 3.83051 0.228003 0.807348 3.83356 0.109098 0.8318 3.83267 0.239091 0.804134 -11.355 14.1266 -2.73751 -11.7462 28.5128 1.35331 -0.0 0.0 -0.0 -4.41937 22.5238 -3.58147 -33.5719 -8.03818 71.3807 0.62865 -17.2975 0.0956224 -4.60914 -0.185024 0.559205 2.14848 6.61355 17.0399 -0.0 0.0 -0.0 11.6284 27.2334 -22.3918 -0.460953 30.5577 -59.0918 2.14959 46.7928 -0.930139 14.7918 -0.282053 1.86324 0.747704 4.79373 -3.00861 0.0 0.0 0.0 26.8366 7.71136 -16.7326 5.85465 -0.284974 -0.852585 -9.15599 -5.80827 1.4082 30.919 -0.0 -0.0 -0.0 0.0 -0.0 -1.23318 28.6658 -7.46721 -10.8967 -0.293056 -1.64409 28.3224 -7.21962 3.70655 9.34259 -0.0 -0.0 0.0 0.0 0.0 
2047.26 700.883 -1453.84 -10.3157 62.147 13.022 3.62264 0.235636 0.841637 3.62301 0.181605 0.854924 3.62555 0.0531469 0.872381 3.62454 0.190251 0.853042 -11.5984 13.6643 -2.81562 -11.9846 27.6983 1.20112 -0.0 0.0 -0.0 -4.66601 22.7261 -3.88061 -33.2763 -7.81154 71.3057 0.688544 -18.8338 0.114198 -4.30969 -0.17164 0.523336 2.06207 6.74053 16.4954 -0.0 0.0 -0.0 11.5849 27.029 -22.3176 -1.09138 30.1604 -58.4295 2.12284 46.4348 -0.910697 15.0065 -0.282581 1.89066 0.695944 5.86143 -2.20955 0.0 0.0 0.0 26.2727 7.70478 -15.6755 6.86474 -0.342907 -0.996599 -7.21021 -4.77892 1.10054 32.4084 -0.0 -0.0 -0.0 0.0 -0.0 -3.35176 28.5946 -7.13637 -9.82244 -0.278132 -1.47993 31.1726 -4.72462 4.01312 10.856 -0.0 -0.0 0.0 0.0 0.0 
2025.28 698.497 -1448.88 -10.2589 62.6989 13.3297 3.61885 0.217575 0.854822 3.61924 0.162741 0.866933 3.62152 0.03265 0.881471 3.62048 0.171447 0.865254 -12.0311 12.4776 -2.60896 -12.3805 25.3334 1.13731 -0.0 0.0 -0.0 -4.68655 22.9425 -3.85566 -32.2677 -8.57155 70.9051 0.733536 -19.9697 0.129144 -6.42922 -0.270398 0.775694 2.03146 7.44234 16.5423 -0.0 0.0 -0.0 11.6712 26.9522 -22.5224 -2.02911 29.9593 -58.0239 2.1297 46.527 -0.915671 15.1344 -0.282847 1.90699 0.723402 6.6851 -2.04661 0.0 0.0 0.0 25.6035 7.66134 -15.4678 7.13719 -0.358968 -1.03527 -12.9491 -2.99614 1.97854 31.1703 -0.0 -0.0 -0.0 0.0 -0.0 -4.41725 28.5996 -6.82431 -11.5405 -0.300524 -1.74259 30.4264 -3.60824 3.93715 10.2129 -0.0 -0.0 0.0 0.0 0.0 
